# xmcd
#
# Track frame offsets:
#	150
#	12769
#	31876
#	45370
#	54004
#	69014
#	86667
#
# Disc length: 1404 seconds
# Revision: 0
# Processed by: cddbd v1.5.2PL0 Copyright (c) Steve Scherf et al.
# Submitted via: dBpowerAMP V12.0
#
DISCID=3f057a07
DTITLE=The Heifer Belles - Ranch Woman's Prayer
DYEAR=2019
DGENRE=Country
TTITLE0=Ranch Romance
TTITLE1=My Old Friend
TTITLE2=Lonely
TTITLE3=Sweet Love
TTITLE4=Happy Wife, Happy Life
TTITLE5=Teardrops and Tiny Trailers
TTITLE6=Ranch Woman's Prayer
EXTD=
EXTT0=
EXTT1=
EXTT2=
EXTT3=
EXTT4=
EXTT5=
EXTT6=
PLAYORDER=
